# xmcd
# 
# Track frame offsets:
#     150
#     17228
#     42754
#     60903
#     75789
#     89104
#     103281
#     123415
#     133982
#     147956
#     167878
#     190241
#     205047
#     215955
#     227213
#     241269
#     261802
# 
# Disc length: 3757
# 
# Revision: 0
# Processed by: cddbd v1.5.2PL0 Copyright (c) Steve Scherf et al.
# Submitted via: fre:ac v1.0.31
# 
DISCID=f70eab11
DTITLE=Various Artist - StoMo's Artist Collection: Blues and Boogie Vol. 6
DYEAR=2013
DGENRE=Blues
TTITLE0=StoMo Allstars 2013 - Long Time No See
TTITLE1=Alex Schultz - Big Time
TTITLE2=Teve 'Big Man' Clayton - Medicine Man
TTITLE3=StoMo Allstars 2013 feat. Winfried Wohlbold - Coal Hod Boogie
TTITLE4=Röby Wark and Streetrats - Ratie Redbeans
TTITLE5=Nico Brina - StoMo Boogie
TTITLE6=Crazy Hambones - Pony Blues
TTITLE7=Peter Crow C. and The Weed Whackers - Nagging Blues
TTITLE8=Matej Ptaszek and Dobre Rano Blues Band - Sir Henry
TTITLE9=Calo Rapallo - Geld
TTITLE10=PhrasePig - Schees Maedle
TTITLE11=Thomas Scheytt - Hiram's Boogie
TTITLE12=LowFi-Kings feat. Sir Oliver Mally - Bottle Up
TTITLE13=Paul Orta and Crazy Hambones - Evans Shuffle
TTITLE14=Dave Moretti Blues Revue - Baby You're Rich
TTITLE15=Vince Weber - Pinetop's Boogie Woogie
TTITLE16=Little Willie Littlefield - Life Of Trouble
EXTD=
EXTT0=
EXTT1=
EXTT2=
EXTT3=
EXTT4=
EXTT5=
EXTT6=
EXTT7=
EXTT8=
EXTT9=
EXTT10=
EXTT11=
EXTT12=
EXTT13=
EXTT14=
EXTT15=
EXTT16=
PLAYORDER=
